# xmcd CD database file
# Copyright (C) 1995 Ti Kan
#
# Track frame offsets:
#	182
#	10270
#	17902
#	28842
#	39810
#	51540
#	62425
#	70855
#	78572
#	87175
#	97185
#	108095
#	119302
#	129262
#
# Disc length: 1888 seconds
#
# Revision: 3
# Processed by: cddbd v1.4PL0 Copyright (c) Steve Scherf et al.
# Submitted via: NotifyCDPlayer(CDDB) 1.60beta5_freedb
#
DISCID=b0075e0e
DTITLE=Johnny Cash - I Walk The Line - CD 2
DYEAR=1900
DGENRE=
TTITLE0=Get Rhythm
TTITLE1=Hey Good Lookin'
TTITLE2=Wide Open Road
TTITLE3=Cry Cry Cry
TTITLE4=So Doggone Lonesome
TTITLE5=I Just Thought You'd Like To Know
TTITLE6=Country Boy
TTITLE7=If The Good Lord's Willing
TTITLE8=I Forgot To Remember To Forget
TTITLE9=Goodbye Little Darling
TTITLE10=I Love You Because
TTITLE11=Don't Make Me Go
TTITLE12=Hey Porter
TTITLE13=Folsom Prison Blues
EXTD=Sun Recordings
EXTT0=
EXTT1=
EXTT2=
EXTT3=
EXTT4=
EXTT5=
EXTT6=
EXTT7=
EXTT8=
EXTT9=
EXTT10=
EXTT11=
EXTT12=
EXTT13=
PLAYORDER=
